<svg width="141" height="137" viewBox="0 0 141 137" fill="none" xmlns="http://www.w3.org/2000/svg">
<path d="M63.3751 137C97.6635 137 125.46 109.247 125.46 75.0114C125.46 40.7761 97.6635 13.0228 63.3751 13.0228C29.0868 13.0228 1.29059 40.7761 1.29059 75.0114C1.29059 109.247 29.0868 137 63.3751 137Z" fill="url(#paint0_linear_147_3463)"/>
<path d="M96.8693 27.4473H28.0927C23.8058 27.4473 20.3305 30.9171 20.3305 35.1975H104.631C104.631 30.9171 101.156 27.4473 96.8693 27.4473Z" fill="url(#paint1_linear_147_3463)"/>
<path d="M20.3305 34.9856H104.631V99.0914C104.631 101.942 103.497 104.675 101.479 106.69C99.4605 108.706 96.7228 109.838 93.8682 109.838H31.0938C28.2392 109.838 25.5015 108.706 23.483 106.69C21.4645 104.675 20.3305 101.942 20.3305 99.0914V34.9856Z" fill="url(#paint2_linear_147_3463)"/>
<path d="M90.1407 96.0923H34.8487C33.6972 96.0923 32.7637 97.0233 32.7637 98.1718C32.7637 99.3202 33.6972 100.251 34.8487 100.251H90.1407C91.2922 100.251 92.2257 99.3202 92.2257 98.1718C92.2257 97.0233 91.2922 96.0923 90.1407 96.0923Z" fill="url(#paint3_linear_147_3463)"/>
<path d="M90.1407 78.4226H34.8486C33.6971 78.4226 32.7637 79.3536 32.7637 80.5021C32.7637 81.6506 33.6971 82.5816 34.8486 82.5816H90.1407C91.2922 82.5816 92.2256 81.6506 92.2256 80.5021C92.2256 79.3536 91.2922 78.4226 90.1407 78.4226Z" fill="url(#paint4_linear_147_3463)"/>
<path d="M34.4742 74.6326H5.03201C2.66672 74.6326 0.749268 76.5471 0.749268 78.9087V120.926C0.749268 123.288 2.66672 125.203 5.03201 125.203H34.4742C36.8395 125.203 38.7569 123.288 38.7569 120.926V78.9087C38.7569 76.5471 36.8395 74.6326 34.4742 74.6326Z" fill="url(#paint5_linear_147_3463)"/>
<path d="M31.2018 115.279H8.52697C7.76344 115.279 7.14447 115.882 7.14447 116.627V116.632C7.14447 117.377 7.76344 117.981 8.52697 117.981H31.2018C31.9653 117.981 32.5843 117.377 32.5843 116.632V116.627C32.5843 115.882 31.9653 115.279 31.2018 115.279Z" fill="url(#paint6_linear_147_3463)"/>
<path d="M31.2018 105.01H8.52697C7.76344 105.01 7.14447 105.614 7.14447 106.359V106.364C7.14447 107.109 7.76344 107.712 8.52697 107.712H31.2018C31.9653 107.712 32.5843 107.109 32.5843 106.364V106.359C32.5843 105.614 31.9653 105.01 31.2018 105.01Z" fill="url(#paint7_linear_147_3463)"/>
<path d="M105.042 97.6406L97.0529 106.435L119.572 126.83L127.562 118.036L105.042 97.6406Z" fill="url(#paint8_linear_147_3463)"/>
<path d="M97.7137 124.328C99.0201 123.997 100.195 125.204 99.829 126.501L99.1237 128.999C98.7574 130.296 97.1243 130.71 96.1842 129.744L94.374 127.885C93.4339 126.919 93.8917 125.297 95.1982 124.966L97.7137 124.328Z" fill="url(#paint9_linear_147_3463)"/>
<path d="M119.571 126.831L127.56 118.036L128.763 119.126C129.931 120.184 130.63 121.661 130.707 123.233C130.783 124.805 130.231 126.343 129.172 127.509C128.113 128.674 126.634 129.372 125.059 129.449C123.485 129.526 121.944 128.975 120.777 127.917L119.574 126.827L119.571 126.831Z" fill="#6C737F"/>
<path d="M31.1888 95.6527H8.3174C7.54725 95.6527 6.92291 96.2761 6.92291 97.045V97.0495C6.92291 97.8185 7.54725 98.4419 8.3174 98.4419H31.1888C31.9589 98.4419 32.5833 97.8185 32.5833 97.0495V97.045C32.5833 96.2761 31.9589 95.6527 31.1888 95.6527Z" fill="url(#paint10_linear_147_3463)"/>
<path d="M16.6799 81.1211H9.99634C8.51585 81.1211 7.31567 82.3194 7.31567 83.7976V85.6496C7.31567 87.1278 8.51585 88.3261 9.99634 88.3261H16.6799C18.1604 88.3261 19.3606 87.1278 19.3606 85.6496V83.7976C19.3606 82.3194 18.1604 81.1211 16.6799 81.1211Z" fill="url(#paint11_linear_147_3463)"/>
<path d="M90.1407 60.7527H34.8486C33.6971 60.7527 32.7637 61.6837 32.7637 62.8322C32.7637 63.9806 33.6971 64.9117 34.8486 64.9117H90.1407C91.2922 64.9117 92.2256 63.9806 92.2256 62.8322C92.2256 61.6837 91.2922 60.7527 90.1407 60.7527Z" fill="url(#paint12_linear_147_3463)"/>
<path fill-rule="evenodd" clip-rule="evenodd" d="M113.485 83.0848C113.485 101.483 98.5477 116.397 80.1214 116.397C61.695 116.397 46.7575 101.483 46.7575 83.0848C46.7575 64.6869 61.695 49.7725 80.1214 49.7725C98.5477 49.7725 113.485 64.6869 113.485 83.0848ZM108.367 83.0848C108.367 98.6606 95.7212 111.287 80.1212 111.287C64.5213 111.287 51.875 98.6606 51.875 83.0848C51.875 67.5089 64.5213 54.8822 80.1212 54.8822C95.7212 54.8822 108.367 67.5089 108.367 83.0848Z" fill="url(#paint13_linear_147_3463)"/>
<path d="M57.7167 121.073C58.2105 119.027 61.1204 119.027 61.6142 121.073C61.7907 121.804 62.3615 122.375 63.0926 122.551C65.1383 123.045 65.1383 125.955 63.0926 126.449C62.3615 126.625 61.7907 127.196 61.6142 127.927C61.1204 129.973 58.2105 129.973 57.7167 127.927C57.5402 127.196 56.9694 126.625 56.2384 126.449C54.1926 125.955 54.1926 123.045 56.2384 122.551C56.9694 122.375 57.5402 121.804 57.7167 121.073Z" fill="url(#paint14_linear_147_3463)"/>
<g filter="url(#filter0_b_147_3463)">
<path d="M80.1215 111.287C95.7214 111.287 108.368 98.6606 108.368 83.0848C108.368 67.5089 95.7214 54.8822 80.1215 54.8822C64.5215 54.8822 51.8752 67.5089 51.8752 83.0848C51.8752 98.6606 64.5215 111.287 80.1215 111.287Z" fill="url(#paint15_linear_147_3463)" fill-opacity="0.2"/>
</g>
<path d="M86.9089 83.0848L94.9869 75.0012C95.7437 74.2015 96.1584 73.1386 96.1428 72.0385C96.1272 70.9384 95.6825 69.8877 94.9034 69.1098C94.1242 68.3318 93.0719 67.8878 91.9701 67.8723C90.8683 67.8567 89.8038 68.2707 89.0028 69.0263L80.9067 77.1099L72.8286 69.0263C72.4399 68.6155 71.9726 68.2868 71.4544 68.0595C70.9362 67.8322 70.3777 67.7109 69.8117 67.7029C69.2458 67.6949 68.684 67.8003 68.1596 68.0129C67.6351 68.2254 67.1587 68.5408 66.7585 68.9404C66.3583 69.34 66.0424 69.8157 65.8295 70.3393C65.6166 70.863 65.5111 71.4239 65.5191 71.9889C65.5271 72.554 65.6485 73.1117 65.8762 73.6291C66.1039 74.1465 66.4331 74.613 66.8445 75.0012L74.9361 83.0848L66.8445 91.1684C66.4331 91.5565 66.1039 92.0231 65.8762 92.5405C65.6485 93.0579 65.5271 93.6156 65.5191 94.1806C65.5111 94.7457 65.6166 95.3066 65.8295 95.8302C66.0424 96.3539 66.3583 96.8295 66.7585 97.2291C67.1587 97.6287 67.6351 97.9441 68.1596 98.1567C68.684 98.3693 69.2458 98.4746 69.8117 98.4666C70.3777 98.4586 70.9362 98.3374 71.4544 98.1101C71.9726 97.8828 72.4399 97.554 72.8286 97.1433L80.9248 89.0596L89.0209 97.1433C89.8294 97.8543 90.8791 98.2308 91.956 98.1959C93.0328 98.1611 94.0559 97.7176 94.8166 96.9557C95.5773 96.1939 96.0185 95.1711 96.0501 94.0958C96.0818 93.0204 95.7015 91.9736 94.9869 91.1684L86.9089 83.0848Z" fill="#4D5761"/>
<g filter="url(#filter1_f_147_3463)">
<ellipse cx="80.6655" cy="98" rx="19.5" ry="3" fill="#1F2A37" fill-opacity="0.56"/>
</g>
<path d="M120.493 68.4463C120.16 67.1402 121.366 65.9635 122.663 66.3281L125.162 67.0302C126.459 67.3948 126.875 69.0273 125.911 69.9687L124.054 71.7813C123.089 72.7227 121.467 72.2669 121.134 70.9609L120.493 68.4463Z" fill="url(#paint16_linear_147_3463)"/>
<path d="M7.71361 59.3282C9.02007 58.9969 10.1953 60.2041 9.82895 61.5012L9.12366 63.9986C8.75734 65.2957 7.12427 65.7098 6.18411 64.744L4.37395 62.8845C3.4338 61.9187 3.89169 60.2974 5.19815 59.9661L7.71361 59.3282Z" fill="url(#paint17_linear_147_3463)"/>
<path d="M90.1407 43.0828H34.8486C33.6971 43.0828 32.7637 44.0138 32.7637 45.1623C32.7637 46.3107 33.6971 47.2417 34.8486 47.2417H90.1407C91.2922 47.2417 92.2256 46.3107 92.2256 45.1623C92.2256 44.0138 91.2922 43.0828 90.1407 43.0828Z" fill="url(#paint18_linear_147_3463)"/>
<mask id="path-23-inside-1_147_3463" fill="white">
<path fill-rule="evenodd" clip-rule="evenodd" d="M124.037 42.5467C125.082 42.5467 125.93 41.6994 125.93 40.6542C125.93 39.609 125.082 38.7618 124.037 38.7618C122.992 38.7618 122.145 39.609 122.145 40.6542C122.145 41.6994 122.992 42.5467 124.037 42.5467ZM124.037 43.966C125.866 43.966 127.349 42.4833 127.349 40.6542C127.349 38.8252 125.866 37.3424 124.037 37.3424C122.208 37.3424 120.725 38.8252 120.725 40.6542C120.725 42.4833 122.208 43.966 124.037 43.966Z"/>
</mask>
<path d="M123.303 40.6542C123.303 40.2489 123.632 39.9204 124.037 39.9204V45.173C126.533 45.173 128.556 43.1499 128.556 40.6542H123.303ZM124.037 41.3881C123.632 41.3881 123.303 41.0595 123.303 40.6542H128.556C128.556 38.1586 126.533 36.1355 124.037 36.1355V41.3881ZM124.771 40.6542C124.771 41.0595 124.442 41.3881 124.037 41.3881V36.1355C121.542 36.1355 119.518 38.1586 119.518 40.6542H124.771ZM124.037 39.9204C124.442 39.9204 124.771 40.2489 124.771 40.6542H119.518C119.518 43.1499 121.542 45.173 124.037 45.173V39.9204ZM124.723 40.6542C124.723 41.0328 124.416 41.3397 124.037 41.3397V46.5923C127.317 46.5923 129.975 43.9337 129.975 40.6542H124.723ZM124.037 39.9687C124.416 39.9687 124.723 40.2756 124.723 40.6542H129.975C129.975 37.3747 127.317 34.7161 124.037 34.7161V39.9687ZM123.352 40.6542C123.352 40.2756 123.659 39.9687 124.037 39.9687V34.7161C120.758 34.7161 118.099 37.3747 118.099 40.6542H123.352ZM124.037 41.3397C123.659 41.3397 123.352 41.0328 123.352 40.6542H118.099C118.099 43.9337 120.758 46.5923 124.037 46.5923V41.3397Z" fill="#6C737F" mask="url(#path-23-inside-1_147_3463)"/>
<g filter="url(#filter2_d_147_3463)">
<path d="M118.287 9H85.7667C84.2513 9 83.0228 10.2266 83.0228 11.7396V27.0012C83.0228 28.5142 84.2513 29.7408 85.7667 29.7408H118.287C119.802 29.7408 121.03 28.5142 121.03 27.0012V11.7396C121.03 10.2266 119.802 9 118.287 9Z" fill="url(#paint19_linear_147_3463)"/>
</g>
<path d="M113.595 22.5178C115.337 22.5178 116.75 21.1076 116.75 19.3681C116.75 17.6286 115.337 16.2185 113.595 16.2185C111.853 16.2185 110.441 17.6286 110.441 19.3681C110.441 21.1076 111.853 22.5178 113.595 22.5178Z" fill="#6C737F"/>
<path d="M102.322 22.5178C104.064 22.5178 105.477 21.1076 105.477 19.3681C105.477 17.6286 104.064 16.2185 102.322 16.2185C100.58 16.2185 99.1675 17.6286 99.1675 19.3681C99.1675 21.1076 100.58 22.5178 102.322 22.5178Z" fill="#6C737F"/>
<path d="M91.0488 22.5178C92.791 22.5178 94.2033 21.1076 94.2033 19.3681C94.2033 17.6286 92.791 16.2185 91.0488 16.2185C89.3066 16.2185 87.8943 17.6286 87.8943 19.3681C87.8943 21.1076 89.3066 22.5178 91.0488 22.5178Z" fill="#6C737F"/>
<path d="M12.7167 18.0729C13.2105 16.0272 16.1204 16.0272 16.6142 18.0729C16.7907 18.804 17.3615 19.3748 18.0926 19.5512C20.1383 20.0451 20.1383 22.9549 18.0926 23.4488C17.3615 23.6252 16.7907 24.196 16.6142 24.9271C16.1204 26.9728 13.2105 26.9728 12.7167 24.9271C12.5402 24.196 11.9694 23.6252 11.2384 23.4488C9.19263 22.9549 9.19263 20.0451 11.2384 19.5512C11.9694 19.3748 12.5402 18.804 12.7167 18.0729Z" fill="url(#paint20_linear_147_3463)"/>
<mask id="path-30-inside-2_147_3463" fill="white">
<path fill-rule="evenodd" clip-rule="evenodd" d="M60.806 14.9844C61.8512 14.9844 62.6985 14.1371 62.6985 13.092C62.6985 12.0468 61.8512 11.1995 60.806 11.1995C59.7608 11.1995 58.9135 12.0468 58.9135 13.092C58.9135 14.1371 59.7608 14.9844 60.806 14.9844ZM60.806 16.4038C62.6351 16.4038 64.1178 14.921 64.1178 13.092C64.1178 11.2629 62.6351 9.78015 60.806 9.78015C58.9769 9.78015 57.4942 11.2629 57.4942 13.092C57.4942 14.921 58.9769 16.4038 60.806 16.4038Z"/>
</mask>
<path d="M60.0722 13.092C60.0722 12.6867 60.4007 12.3581 60.806 12.3581V17.6107C63.3017 17.6107 65.3248 15.5876 65.3248 13.092H60.0722ZM60.806 13.8258C60.4007 13.8258 60.0722 13.4972 60.0722 13.092H65.3248C65.3248 10.5963 63.3017 8.5732 60.806 8.5732V13.8258ZM61.5398 13.092C61.5398 13.4972 61.2113 13.8258 60.806 13.8258V8.5732C58.3104 8.5732 56.2873 10.5963 56.2873 13.092H61.5398ZM60.806 12.3581C61.2113 12.3581 61.5398 12.6867 61.5398 13.092H56.2873C56.2873 15.5876 58.3104 17.6107 60.806 17.6107V12.3581ZM61.4915 13.092C61.4915 13.4706 61.1846 13.7775 60.806 13.7775V19.0301C64.0855 19.0301 66.7441 16.3715 66.7441 13.092H61.4915ZM60.806 12.4064C61.1846 12.4064 61.4915 12.7134 61.4915 13.092H66.7441C66.7441 9.81243 64.0855 7.15385 60.806 7.15385V12.4064ZM60.1205 13.092C60.1205 12.7134 60.4274 12.4064 60.806 12.4064V7.15385C57.5265 7.15385 54.8679 9.81243 54.8679 13.092H60.1205ZM60.806 13.7775C60.4274 13.7775 60.1205 13.4706 60.1205 13.092H54.8679C54.8679 16.3715 57.5265 19.0301 60.806 19.0301V13.7775Z" fill="#6C737F" mask="url(#path-30-inside-2_147_3463)"/>
<defs>
<filter id="filter0_b_147_3463" x="35.2001" y="38.2071" width="89.8428" height="89.7554" filterUnits="userSpaceOnUse" color-interpolation-filters="sRGB">
<feFlood flood-opacity="0" result="BackgroundImageFix"/>
<feGaussianBlur in="BackgroundImageFix" stdDeviation="8.33757"/>
<feComposite in2="SourceAlpha" operator="in" result="effect1_backgroundBlur_147_3463"/>
<feBlend mode="normal" in="SourceGraphic" in2="effect1_backgroundBlur_147_3463" result="shape"/>
</filter>
<filter id="filter1_f_147_3463" x="40.3215" y="74.1561" width="80.6879" height="47.6879" filterUnits="userSpaceOnUse" color-interpolation-filters="sRGB">
<feFlood flood-opacity="0" result="BackgroundImageFix"/>
<feBlend mode="normal" in="SourceGraphic" in2="BackgroundImageFix" result="shape"/>
<feGaussianBlur stdDeviation="10.422" result="effect1_foregroundBlur_147_3463"/>
</filter>
<filter id="filter2_d_147_3463" x="76.0228" y="0" width="64.0076" height="46.7407" filterUnits="userSpaceOnUse" color-interpolation-filters="sRGB">
<feFlood flood-opacity="0" result="BackgroundImageFix"/>
<feColorMatrix in="SourceAlpha" type="matrix" values="0 0 0 0 0 0 0 0 0 0 0 0 0 0 0 0 0 0 127 0" result="hardAlpha"/>
<feOffset dx="6" dy="4"/>
<feGaussianBlur stdDeviation="6.5"/>
<feComposite in2="hardAlpha" operator="out"/>
<feColorMatrix type="matrix" values="0 0 0 0 0.104618 0 0 0 0 0.465612 0 0 0 0 0.545833 0 0 0 0.09 0"/>
<feBlend mode="normal" in2="BackgroundImageFix" result="effect1_dropShadow_147_3463"/>
<feBlend mode="normal" in="SourceGraphic" in2="effect1_dropShadow_147_3463" result="shape"/>
</filter>
<linearGradient id="paint0_linear_147_3463" x1="62.8965" y1="-7.16218" x2="64.1644" y2="210.532" gradientUnits="userSpaceOnUse">
<stop stop-color="white" stop-opacity="0"/>
<stop offset="1" stop-color="#9DA4AE"/>
</linearGradient>
<linearGradient id="paint1_linear_147_3463" x1="20.235" y1="29.2359" x2="104.672" y2="35.199" gradientUnits="userSpaceOnUse">
<stop stop-color="#9DA4AE"/>
<stop offset="1" stop-color="#6C737F"/>
</linearGradient>
<linearGradient id="paint2_linear_147_3463" x1="17.7993" y1="91.1158" x2="139.586" y2="93.2842" gradientUnits="userSpaceOnUse">
<stop stop-color="white"/>
<stop offset="1" stop-color="#E5E7EB"/>
</linearGradient>
<linearGradient id="paint3_linear_147_3463" x1="30.2488" y1="100.08" x2="95.7428" y2="100.08" gradientUnits="userSpaceOnUse">
<stop stop-color="#6C737F"/>
<stop offset="1" stop-color="#E5E7EB"/>
</linearGradient>
<linearGradient id="paint4_linear_147_3463" x1="30.2488" y1="82.4101" x2="95.7428" y2="82.4101" gradientUnits="userSpaceOnUse">
<stop stop-color="#6C737F"/>
<stop offset="1" stop-color="#E5E7EB"/>
</linearGradient>
<linearGradient id="paint5_linear_147_3463" x1="-0.391939" y1="112.554" x2="54.5258" y2="113.206" gradientUnits="userSpaceOnUse">
<stop stop-color="white"/>
<stop offset="1" stop-color="#E5E7EB"/>
</linearGradient>
<linearGradient id="paint6_linear_147_3463" x1="6.06852" y1="117.869" x2="34.089" y2="117.869" gradientUnits="userSpaceOnUse">
<stop stop-color="#6C737F"/>
<stop offset="1" stop-color="#E5E7EB"/>
</linearGradient>
<linearGradient id="paint7_linear_147_3463" x1="6.06852" y1="107.601" x2="34.089" y2="107.601" gradientUnits="userSpaceOnUse">
<stop stop-color="#6C737F"/>
<stop offset="1" stop-color="#E5E7EB"/>
</linearGradient>
<linearGradient id="paint8_linear_147_3463" x1="102.241" y1="111.152" x2="110.292" y2="102.307" gradientUnits="userSpaceOnUse">
<stop stop-color="#9DA4AE"/>
<stop offset="1" stop-color="#6C737F"/>
</linearGradient>
<linearGradient id="paint9_linear_147_3463" x1="95.5039" y1="121.602" x2="102.478" y2="128.86" gradientUnits="userSpaceOnUse">
<stop stop-color="#9DA4AE"/>
<stop offset="1" stop-color="#6C737F"/>
</linearGradient>
<linearGradient id="paint10_linear_147_3463" x1="5.83763" y1="98.3269" x2="34.1011" y2="98.3269" gradientUnits="userSpaceOnUse">
<stop stop-color="#6C737F"/>
<stop offset="1" stop-color="#E5E7EB"/>
</linearGradient>
<linearGradient id="paint11_linear_147_3463" x1="6.80624" y1="88.0289" x2="20.0731" y2="88.0289" gradientUnits="userSpaceOnUse">
<stop stop-color="#6C737F"/>
<stop offset="1" stop-color="#E5E7EB"/>
</linearGradient>
<linearGradient id="paint12_linear_147_3463" x1="30.2488" y1="64.7401" x2="95.7428" y2="64.7401" gradientUnits="userSpaceOnUse">
<stop stop-color="#6C737F"/>
<stop offset="1" stop-color="#E5E7EB"/>
</linearGradient>
<linearGradient id="paint13_linear_147_3463" x1="46.6819" y1="65.1485" x2="113.848" y2="65.5852" gradientUnits="userSpaceOnUse">
<stop stop-color="#9DA4AE"/>
<stop offset="1" stop-color="#6C737F"/>
</linearGradient>
<linearGradient id="paint14_linear_147_3463" x1="48.1394" y1="118.308" x2="71.2905" y2="118.458" gradientUnits="userSpaceOnUse">
<stop stop-color="#9DA4AE"/>
<stop offset="1" stop-color="#6C737F"/>
</linearGradient>
<linearGradient id="paint15_linear_147_3463" x1="80.1215" y1="54.8822" x2="108.508" y2="128.656" gradientUnits="userSpaceOnUse">
<stop stop-color="white"/>
<stop offset="1" stop-color="#D2D6DB"/>
</linearGradient>
<linearGradient id="paint16_linear_147_3463" x1="117.769" y1="70.6595" x2="125.019" y2="63.6758" gradientUnits="userSpaceOnUse">
<stop stop-color="#9DA4AE"/>
<stop offset="1" stop-color="#6C737F"/>
</linearGradient>
<linearGradient id="paint17_linear_147_3463" x1="5.50387" y1="56.6017" x2="12.4782" y2="63.8599" gradientUnits="userSpaceOnUse">
<stop stop-color="#9DA4AE"/>
<stop offset="1" stop-color="#6C737F"/>
</linearGradient>
<linearGradient id="paint18_linear_147_3463" x1="30.2488" y1="47.0702" x2="95.7428" y2="47.0702" gradientUnits="userSpaceOnUse">
<stop stop-color="#6C737F"/>
<stop offset="1" stop-color="#E5E7EB"/>
</linearGradient>
<linearGradient id="paint19_linear_147_3463" x1="81.8816" y1="24.553" x2="136.761" y2="26.143" gradientUnits="userSpaceOnUse">
<stop stop-color="white"/>
<stop offset="1" stop-color="#E5E7EB"/>
</linearGradient>
<linearGradient id="paint20_linear_147_3463" x1="3.13942" y1="15.3081" x2="26.2905" y2="15.4584" gradientUnits="userSpaceOnUse">
<stop stop-color="#9DA4AE"/>
<stop offset="1" stop-color="#6C737F"/>
</linearGradient>
</defs>
</svg>
