<svg width="1969" height="1229" viewBox="0 0 1969 1229" fill="none" xmlns="http://www.w3.org/2000/svg">
<mask id="mask0_354_4287" style="mask-type:alpha" maskUnits="userSpaceOnUse" x="0" y="0" width="1969" height="1229">
<rect width="1969" height="1229" fill="#D9D9D9"/>
</mask>
<g mask="url(#mask0_354_4287)">
<rect x="-7" y="-5" width="1971" height="1234" fill="#002450"/>
<path style="mix-blend-mode:overlay" opacity="0.6" d="M1996.04 239.535C1888.4 223.629 1828.72 239.987 1739.29 283.421C1679.22 312.572 1628.57 354.118 1556.96 366.699C1469.53 382.072 1379.18 348.905 1311.79 308.317C1244.41 267.728 1187.23 217.964 1108.07 188.6C943.673 127.638 733.155 173.359 585.001 250.998C520.898 284.591 462.962 323.929 393.183 351.884C323.371 379.811 236.565 395.371 160.586 376.168C98.0894 360.368 52.0949 323.77 -7.48145 303.449V-1.81348H1996.04V239.561V239.535Z" fill="url(#paint0_linear_354_4287)"/>
<path style="mix-blend-mode:overlay" opacity="0.6" d="M-34.0354 1061.65C73.6022 1077.56 133.277 1061.2 222.707 1017.77C282.776 988.614 333.429 947.069 405.045 934.488C492.474 919.114 582.822 952.282 650.207 992.87C717.591 1033.46 774.772 1083.22 853.934 1112.59C1018.33 1173.55 1228.85 1127.83 1377 1050.19C1441.1 1016.6 1499.04 977.257 1568.82 949.303C1638.63 921.375 1725.44 905.816 1801.41 925.019C1863.91 940.818 1909.91 977.417 1969.48 997.738L1969.48 1303L-34.0354 1303L-34.0354 1061.63L-34.0354 1061.65Z" fill="url(#paint1_linear_354_4287)"/>
<path style="mix-blend-mode:overlay" opacity="0.6" d="M-7.48145 225.04C103.494 212.719 165.007 225.386 257.189 259.005C319.09 281.577 371.326 313.708 445.16 323.454C535.283 335.351 628.419 309.672 697.897 278.284C767.376 246.869 826.294 208.364 907.945 185.633C1077.42 138.471 1294.45 173.842 1447.19 233.91C1513.27 259.907 1572.99 290.34 1644.95 311.982C1716.9 333.598 1806.4 345.628 1884.74 330.757C1949.17 318.541 1996.58 290.207 2058 274.486V109.738H-7.48145V225.04Z" fill="url(#paint2_linear_354_4287)"/>
<path style="mix-blend-mode:overlay" opacity="0.6" d="M1969.48 1076.15C1858.51 1088.47 1796.99 1075.8 1704.81 1042.18C1642.91 1019.61 1590.67 987.478 1516.84 977.732C1426.72 965.836 1333.58 991.515 1264.1 1022.9C1194.62 1054.32 1135.71 1092.82 1054.06 1115.55C884.579 1162.72 667.551 1127.34 514.811 1067.28C448.733 1041.28 389.009 1010.85 317.054 989.204C245.1 967.588 155.603 955.559 77.2643 970.43C12.8272 982.645 -34.5759 1010.98 -96 1026.7L-96 1191.45L1969.48 1191.45L1969.48 1076.15Z" fill="url(#paint3_linear_354_4287)"/>
<g style="mix-blend-mode:overlay" opacity="0.4">
<path d="M1109.98 328.171C1109.98 331.497 1107.11 334.184 1103.56 334.184C1100.01 334.184 1097.14 331.497 1097.14 328.171C1097.14 324.845 1100.01 322.157 1103.56 322.157C1107.11 322.157 1109.98 324.845 1109.98 328.171Z" fill="white"/>
<path d="M1581.46 909.311C1581.46 912.637 1578.6 915.325 1575.05 915.325C1571.5 915.325 1568.63 912.637 1568.63 909.311C1568.63 905.985 1571.5 903.298 1575.05 903.298C1578.6 903.298 1581.46 905.985 1581.46 909.311Z" fill="white"/>
<path d="M1150.5 1070.29C1150.5 1071.99 1149.03 1073.35 1147.24 1073.35C1145.45 1073.35 1143.97 1071.96 1143.97 1070.29C1143.97 1068.61 1145.45 1067.23 1147.24 1067.23C1149.03 1067.23 1150.5 1068.61 1150.5 1070.29Z" fill="white"/>
<path d="M1697.04 908.487C1700.91 908.487 1704.05 905.545 1704.05 901.915C1704.05 898.285 1700.91 895.343 1697.04 895.343C1693.17 895.343 1690.03 898.285 1690.03 901.915C1690.03 905.545 1693.17 908.487 1697.04 908.487Z" fill="white"/>
<path d="M1186.96 1021.41C1186.96 1025.59 1183.36 1028.97 1178.9 1028.97C1174.44 1028.97 1170.83 1025.59 1170.83 1021.41C1170.83 1017.23 1174.44 1013.85 1178.9 1013.85C1183.36 1013.85 1186.96 1017.23 1186.96 1021.41Z" fill="white"/>
<path d="M1117.93 287.115C1117.93 289.11 1116.2 290.733 1114.07 290.733C1111.94 290.733 1110.21 289.11 1110.21 287.115C1110.21 285.119 1111.94 283.496 1114.07 283.496C1116.2 283.496 1117.93 285.119 1117.93 287.115Z" fill="white"/>
<path d="M1681.51 955.848C1681.51 957.844 1679.78 959.467 1677.65 959.467C1675.52 959.467 1673.78 957.844 1673.78 955.848C1673.78 953.853 1675.52 952.229 1677.65 952.229C1679.78 952.229 1681.51 953.853 1681.51 955.848Z" fill="white"/>
<path d="M1028.39 311.488C1029.66 311.488 1030.69 310.523 1030.69 309.332C1030.69 308.142 1029.66 307.177 1028.39 307.177C1027.12 307.177 1026.09 308.142 1026.09 309.332C1026.09 310.523 1027.12 311.488 1028.39 311.488Z" fill="white"/>
<path d="M1763.58 708.875C1763.58 710.072 1762.56 711.03 1761.28 711.03C1760 711.03 1758.98 710.072 1758.98 708.875C1758.98 707.678 1760 706.72 1761.28 706.72C1762.56 706.72 1763.58 707.678 1763.58 708.875Z" fill="white"/>
<path d="M1259.55 961.169C1259.55 962.34 1258.56 963.271 1257.31 963.271C1256.06 963.271 1255.06 962.34 1255.06 961.169C1255.06 959.999 1256.06 959.067 1257.31 959.067C1258.56 959.067 1259.55 959.999 1259.55 961.169Z" fill="white"/>
<path d="M1049.58 922.775C1049.58 925.223 1047.45 927.218 1044.84 927.218C1042.22 927.218 1040.09 925.223 1040.09 922.775C1040.09 920.327 1042.22 918.331 1044.84 918.331C1047.45 918.331 1049.58 920.327 1049.58 922.775Z" fill="white"/>
<path d="M1702.98 771.03C1704.25 771.03 1705.28 770.065 1705.28 768.875C1705.28 767.685 1704.25 766.72 1702.98 766.72C1701.71 766.72 1700.68 767.685 1700.68 768.875C1700.68 770.065 1701.71 771.03 1702.98 771.03Z" fill="white"/>
</g>
<g style="mix-blend-mode:overlay" opacity="0.4">
<path d="M240.051 328.171C240.051 331.497 237.182 334.184 233.633 334.184C230.083 334.184 227.215 331.497 227.215 328.171C227.215 324.845 230.083 322.157 233.633 322.157C237.182 322.157 240.051 324.845 240.051 328.171Z" fill="white"/>
<path d="M711.508 909.311C711.508 912.637 708.639 915.325 705.09 915.325C701.54 915.325 698.672 912.637 698.672 909.311C698.672 905.985 701.54 903.298 705.09 903.298C708.639 903.298 711.508 905.985 711.508 909.311Z" fill="white"/>
<path d="M280.545 1070.29C280.545 1071.99 279.068 1073.35 277.279 1073.35C275.49 1073.35 274.014 1071.96 274.014 1070.29C274.014 1068.61 275.49 1067.23 277.279 1067.23C279.068 1067.23 280.545 1068.61 280.545 1070.29Z" fill="white"/>
<path d="M827.085 908.487C830.959 908.487 834.1 905.545 834.1 901.915C834.1 898.285 830.959 895.343 827.085 895.343C823.212 895.343 820.071 898.285 820.071 901.915C820.071 905.545 823.212 908.487 827.085 908.487Z" fill="white"/>
<path d="M317.008 1021.41C317.008 1025.59 313.401 1028.97 308.943 1028.97C304.484 1028.97 300.878 1025.59 300.878 1021.41C300.878 1017.23 304.484 1013.85 308.943 1013.85C313.401 1013.85 317.008 1017.23 317.008 1021.41Z" fill="white"/>
<path d="M247.973 287.115C247.973 289.11 246.241 290.733 244.111 290.733C241.981 290.733 240.249 289.11 240.249 287.115C240.249 285.119 241.981 283.496 244.111 283.496C246.241 283.496 247.973 285.119 247.973 287.115Z" fill="white"/>
<path d="M811.551 955.848C811.551 957.844 809.819 959.467 807.689 959.467C805.559 959.467 803.827 957.844 803.827 955.848C803.827 953.853 805.559 952.229 807.689 952.229C809.819 952.229 811.551 953.853 811.551 955.848Z" fill="white"/>
<path d="M158.465 311.488C159.736 311.488 160.765 310.523 160.765 309.332C160.765 308.142 159.736 307.177 158.465 307.177C157.195 307.177 156.165 308.142 156.165 309.332C156.165 310.523 157.195 311.488 158.465 311.488Z" fill="white"/>
<path d="M893.621 708.875C893.621 710.072 892.599 711.03 891.321 711.03C890.043 711.03 889.021 710.072 889.021 708.875C889.021 707.678 890.043 706.72 891.321 706.72C892.599 706.72 893.621 707.678 893.621 708.875Z" fill="white"/>
<path d="M389.592 961.169C389.592 962.34 388.598 963.271 387.349 963.271C386.099 963.271 385.105 962.34 385.105 961.169C385.105 959.999 386.099 959.067 387.349 959.067C388.598 959.067 389.592 959.999 389.592 961.169Z" fill="white"/>
<path d="M179.621 922.775C179.621 925.223 177.491 927.218 174.878 927.218C172.266 927.218 170.136 925.223 170.136 922.775C170.136 920.327 172.266 918.331 174.878 918.331C177.491 918.331 179.621 920.327 179.621 922.775Z" fill="white"/>
<path d="M833.049 771.03C834.32 771.03 835.349 770.065 835.349 768.875C835.349 767.685 834.32 766.72 833.049 766.72C831.779 766.72 830.749 767.685 830.749 768.875C830.749 770.065 831.779 771.03 833.049 771.03Z" fill="white"/>
</g>
<g style="mix-blend-mode:overlay" opacity="0.15">
<path d="M1966.45 1280.46H1970.96V-1.81348H1966.45V71.8366H1870.93V-1.81348H1866.43V71.8366H1770.91V-1.81348H1766.41V71.8366H1670.89V-1.81348H1666.39V71.8366H1570.87V-1.81348H1566.37V71.8366H1470.85V-1.81348H1466.35V71.8366H1370.83V-1.81348H1366.33V71.8366H1270.81V-1.81348H1266.31V71.8366H1170.79V-1.81348H1166.29V71.8366H1070.77V-1.81348H1066.27V71.8366H970.749V-1.81348H966.246V1280.46H970.749V1206.73H1066.27V1280.46H1070.77V1206.73H1166.29V1280.46H1170.79V1206.73H1266.31V1280.46H1270.81V1206.73H1366.33V1280.46H1370.83V1206.73H1466.35V1280.46H1470.85V1206.73H1566.37V1280.46H1570.87V1206.73H1666.39V1280.46H1670.89V1206.73H1766.41V1280.46H1770.91V1206.73H1866.43V1280.46H1870.93V1206.73H1966.45V1280.46ZM1066.17 1202.81H970.652V1119.74H1066.17V1202.81ZM1166.19 1202.81H1070.67V1119.74H1166.19V1202.81ZM1266.21 1202.81H1170.69V1119.74H1266.21V1202.81ZM1366.23 1202.81H1270.71V1119.74H1366.23V1202.81ZM1466.25 1202.81H1370.73V1119.74H1466.25V1202.81ZM1566.27 1202.81H1470.75V1119.74H1566.27V1202.81ZM1666.29 1202.81H1570.78V1119.74H1666.29V1202.81ZM1766.31 1202.81H1670.8V1119.74H1766.31V1202.81ZM1866.33 1202.81H1770.82V1119.74H1866.33V1202.81ZM1966.35 1202.81H1870.84V1119.74H1966.35V1202.81ZM1066.07 1115.82H970.554V1032.75H1066.07V1115.82ZM1166.09 1115.82H1070.57V1032.75H1166.09V1115.82ZM1266.11 1115.82H1170.59V1032.75H1266.11V1115.82ZM1366.13 1115.82H1270.62V1032.75H1366.13V1115.82ZM1466.15 1115.82H1370.64V1032.75H1466.15V1115.82ZM1566.17 1115.82H1470.66V1032.75H1566.17V1115.82ZM1666.19 1115.82H1570.68V1032.75H1666.19V1115.82ZM1766.21 1115.82H1670.7V1032.75H1766.21V1115.82ZM1866.24 1115.82H1770.72V1032.75H1866.24V1115.82ZM1966.26 1115.82H1870.74V1032.75H1966.26V1115.82ZM1065.97 1028.83H970.456V945.761H1065.97V1028.83ZM1165.99 1028.83H1070.48V945.761H1165.99V1028.83ZM1266.01 1028.83H1170.5V945.761H1266.01V1028.83ZM1366.03 1028.83H1270.52V945.761H1366.03V1028.83ZM1466.06 1028.83H1370.54V945.761H1466.06V1028.83ZM1566.08 1028.83H1470.56V945.761H1566.08V1028.83ZM1666.1 1028.83H1570.58V945.761H1666.1V1028.83ZM1766.12 1028.83H1670.6V945.761H1766.12V1028.83ZM1866.14 1028.83H1770.62V945.761H1866.14V1028.83ZM1966.16 1028.83H1870.64V945.761H1966.16V1028.83ZM1065.88 941.844H970.358V858.772H1065.88V941.844ZM1165.9 941.844H1070.38V858.772H1165.9V941.844ZM1265.92 941.844H1170.4V858.772H1265.92V941.844ZM1365.94 941.844H1270.42V858.772H1365.94V941.844ZM1465.96 941.844H1370.44V858.772H1465.96V941.844ZM1565.98 941.844H1470.46V858.772H1565.98V941.844ZM1666 941.844H1570.48V858.772H1666V941.844ZM1766.02 941.844H1670.5V858.772H1766.02V941.844ZM1866.04 941.844H1770.52V858.772H1866.04V941.844ZM1966.06 941.844H1870.54V858.772H1966.06V941.844ZM1065.78 854.855H970.26V771.782H1065.78V854.855ZM1165.8 854.855H1070.28V771.782H1165.8V854.855ZM1265.82 854.855H1170.3V771.782H1265.82V854.855ZM1365.84 854.855H1270.32V771.782H1365.84V854.855ZM1465.86 854.855H1370.34V771.782H1465.86V854.855ZM1565.88 854.855H1470.36V771.782H1565.88V854.855ZM1665.9 854.855H1570.38V771.782H1665.9V854.855ZM1765.92 854.855H1670.4V771.782H1765.92V854.855ZM1865.94 854.855H1770.42V771.782H1865.94V854.855ZM1965.96 854.855H1870.45V771.782H1965.96V854.855ZM1065.68 767.866H970.162V684.793H1065.68V767.866ZM1165.7 767.866H1070.18V684.793H1165.7V767.866ZM1265.72 767.866H1170.2V684.793H1265.72V767.866ZM1365.74 767.866H1270.22V684.793H1365.74V767.866ZM1465.76 767.866H1370.24V684.793H1465.76V767.866ZM1565.78 767.866H1470.26V684.793H1565.78V767.866ZM1665.8 767.866H1570.29V684.793H1665.8V767.866ZM1765.82 767.866H1670.31V684.793H1765.82V767.866ZM1865.84 767.866H1770.33V684.793H1865.84V767.866ZM1965.86 767.866H1870.35V684.793H1965.86V767.866ZM1065.58 680.876H970.064V597.803H1065.58V680.876ZM1165.6 680.876H1070.08V597.803H1165.6V680.876ZM1265.62 680.876H1170.11V597.803H1265.62V680.876ZM1365.64 680.876H1270.13V597.803H1365.64V680.876ZM1465.66 680.876H1370.15V597.803H1465.66V680.876ZM1565.68 680.876H1470.17V597.803H1565.68V680.876ZM1665.7 680.876H1570.19V597.803H1665.7V680.876ZM1765.73 680.876H1670.21V597.803H1765.73V680.876ZM1865.75 680.876H1770.23V597.803H1865.75V680.876ZM1965.77 680.876H1870.25V597.803H1965.77V680.876ZM1065.48 593.887H969.966V510.814H1065.48V593.887ZM1165.5 593.887H1069.99V510.814H1165.5V593.887ZM1265.52 593.887H1170.01V510.814H1265.52V593.887ZM1365.55 593.887H1270.03V510.814H1365.55V593.887ZM1465.57 593.887H1370.05V510.814H1465.57V593.887ZM1565.59 593.887H1470.07V510.814H1565.59V593.887ZM1665.61 593.887H1570.09V510.814H1665.61V593.887ZM1765.63 593.887H1670.11V510.814H1765.63V593.887ZM1865.65 593.887H1770.13V510.814H1865.65V593.887ZM1965.67 593.887H1870.15V510.814H1965.67V593.887ZM1065.39 506.897H969.868V423.825H1065.39V506.897ZM1165.41 506.897H1069.89V423.825H1165.41V506.897ZM1265.43 506.897H1169.91V423.825H1265.43V506.897ZM1365.45 506.897H1269.93V423.825H1365.45V506.897ZM1465.47 506.897H1369.95V423.825H1465.47V506.897ZM1565.49 506.897H1469.97V423.825H1565.49V506.897ZM1665.51 506.897H1569.99V423.825H1665.51V506.897ZM1765.53 506.897H1670.01V423.825H1765.53V506.897ZM1865.55 506.897H1770.03V423.825H1865.55V506.897ZM1965.57 506.897H1870.05V423.825H1965.57V506.897ZM1065.29 419.908H969.77V336.835H1065.29V419.908ZM1165.31 419.908H1069.79V336.835H1165.31V419.908ZM1265.33 419.908H1169.81V336.835H1265.33V419.908ZM1365.35 419.908H1269.83V336.835H1365.35V419.908ZM1465.37 419.908H1369.85V336.835H1465.37V419.908ZM1565.39 419.908H1469.87V336.835H1565.39V419.908ZM1665.41 419.908H1569.89V336.835H1665.41V419.908ZM1765.43 419.908H1669.91V336.835H1765.43V419.908ZM1865.45 419.908H1769.94V336.835H1865.45V419.908ZM1965.47 419.908H1869.96V336.835H1965.47V419.908ZM1065.19 332.918H969.673V249.846H1065.19V332.918ZM1165.21 332.918H1069.69V249.846H1165.21V332.918ZM1265.23 332.918H1169.71V249.846H1265.23V332.918ZM1365.25 332.918H1269.73V249.846H1365.25V332.918ZM1465.27 332.918H1369.75V249.846H1465.27V332.918ZM1565.29 332.918H1469.78V249.846H1565.29V332.918ZM1665.31 332.918H1569.8V249.846H1665.31V332.918ZM1765.33 332.918H1669.82V249.846H1765.33V332.918ZM1865.35 332.918H1769.84V249.846H1865.35V332.918ZM1965.38 332.918H1869.86V249.846H1965.38V332.918ZM1065.09 245.929H969.575V162.856H1065.09V245.929ZM1165.11 245.929H1069.6V162.856H1165.11V245.929ZM1265.13 245.929H1169.62V162.856H1265.13V245.929ZM1365.15 245.929H1269.64V162.856H1365.15V245.929ZM1465.17 245.929H1369.66V162.856H1465.17V245.929ZM1565.19 245.929H1469.68V162.856H1565.19V245.929ZM1665.22 245.929H1569.7V162.856H1665.22V245.929ZM1765.24 245.929H1669.72V162.856H1765.24V245.929ZM1865.26 245.929H1769.74V162.856H1865.26V245.929ZM1965.28 245.929H1869.76V162.856H1965.28V245.929ZM1064.99 158.94H969.477V75.8668H1064.99V158.94ZM1165.01 158.94H1069.5V75.8668H1165.01V158.94ZM1265.04 158.94H1169.52V75.8668H1265.04V158.94ZM1365.06 158.94H1269.54V75.8668H1365.06V158.94ZM1465.08 158.94H1369.56V75.8668H1465.08V158.94ZM1565.1 158.94H1469.58V75.8668H1565.1V158.94ZM1665.12 158.94H1569.6V75.8668H1665.12V158.94ZM1765.14 158.94H1669.62V75.8668H1765.14V158.94ZM1865.16 158.94H1769.64V75.8668H1865.16V158.94ZM1965.18 158.94H1869.66V75.8668H1965.18V158.94Z" fill="white"/>
</g>
<g style="mix-blend-mode:overlay" opacity="0.15">
<path d="M966.168 1280.46H970.671V-1.81348H966.168V71.8366H870.65V-1.81348H866.147V71.8366H770.63V-1.81348H766.126V71.8366H670.609V-1.81348H666.106V71.8366H570.589V-1.81348H566.085V71.8366H470.568V-1.81348H466.065V71.8366H370.548V-1.81348H366.044V71.8366H270.527V-1.81348H266.024V71.8366H170.506V-1.81348H166.003V71.8366H70.4859V-1.81348H65.9825V71.8366H-29.5347V-1.81348H-34.0381V1280.46H-29.5347V1206.73H65.9825V1280.46H70.4859V1206.73H166.003V1280.46H170.506V1206.73H266.024V1280.46H270.527V1206.73H366.044V1280.46H370.548V1206.73H466.065V1280.46H470.568V1206.73H566.085V1280.46H570.589V1206.73H666.106V1280.46H670.609V1206.73H766.126V1280.46H770.63V1206.73H866.147V1280.46H870.65V1206.73H966.168V1280.46ZM65.8846 1202.81H-29.6326V1119.74H65.8846V1202.81ZM165.905 1202.81H70.388V1119.74H165.905V1202.81ZM265.926 1202.81H170.409V1119.74H265.926V1202.81ZM365.946 1202.81H270.429V1119.74H365.946V1202.81ZM465.967 1202.81H370.45V1119.74H465.967V1202.81ZM565.987 1202.81H470.47V1119.74H565.987V1202.81ZM666.008 1202.81H570.491V1119.74H666.008V1202.81ZM766.029 1202.81H670.511V1119.74H766.029V1202.81ZM866.049 1202.81H770.532V1119.74H866.049V1202.81ZM966.07 1202.81H870.552V1119.74H966.07V1202.81ZM65.7867 1115.82H-29.7305V1032.75H65.7867V1115.82ZM165.807 1115.82H70.2901V1032.75H165.807V1115.82ZM265.828 1115.82H170.311V1032.75H265.828V1115.82ZM365.848 1115.82H270.331V1032.75H365.848V1115.82ZM465.869 1115.82H370.352V1032.75H465.869V1115.82ZM565.89 1115.82H470.372V1032.75H565.89V1115.82ZM665.91 1115.82H570.393V1032.75H665.91V1115.82ZM765.931 1115.82H670.414V1032.75H765.931V1115.82ZM865.951 1115.82H770.434V1032.75H865.951V1115.82ZM965.972 1115.82H870.455V1032.75H965.972V1115.82ZM65.6888 1028.83H-29.8284V945.761H65.6888V1028.83ZM165.709 1028.83H70.1922V945.761H165.709V1028.83ZM265.73 1028.83H170.213V945.761H265.73V1028.83ZM365.751 1028.83H270.233V945.761H365.751V1028.83ZM465.771 1028.83H370.254V945.761H465.771V1028.83ZM565.792 1028.83H470.274V945.761H565.792V1028.83ZM665.812 1028.83H570.295V945.761H665.812V1028.83ZM765.833 1028.83H670.316V945.761H765.833V1028.83ZM865.853 1028.83H770.336V945.761H865.853V1028.83ZM965.874 1028.83H870.357V945.761H965.874V1028.83ZM65.5909 941.844H-29.9263V858.772H65.5909V941.844ZM165.611 941.844H70.0943V858.772H165.611V941.844ZM265.632 941.844H170.115V858.772H265.632V941.844ZM365.653 941.844H270.135V858.772H365.653V941.844ZM465.673 941.844H370.156V858.772H465.673V941.844ZM565.694 941.844H470.177V858.772H565.694V941.844ZM665.714 941.844H570.197V858.772H665.714V941.844ZM765.735 941.844H670.218V858.772H765.735V941.844ZM865.755 941.844H770.238V858.772H865.755V941.844ZM965.776 941.844H870.259V858.772H965.776V941.844ZM65.493 854.855H-30.0242V771.782H65.493V854.855ZM165.514 854.855H69.9964V771.782H165.514V854.855ZM265.534 854.855H170.017V771.782H265.534V854.855ZM365.555 854.855H270.038V771.782H365.555V854.855ZM465.575 854.855H370.058V771.782H465.575V854.855ZM565.596 854.855H470.079V771.782H565.596V854.855ZM665.616 854.855H570.099V771.782H665.616V854.855ZM765.637 854.855H670.12V771.782H765.637V854.855ZM865.658 854.855H770.14V771.782H865.658V854.855ZM965.678 854.855H870.161V771.782H965.678V854.855ZM65.3951 767.866H-30.1221V684.793H65.3951V767.866ZM165.416 767.866H69.8985V684.793H165.416V767.866ZM265.436 767.866H169.919V684.793H265.436V767.866ZM365.457 767.866H269.94V684.793H365.457V767.866ZM465.477 767.866H369.96V684.793H465.477V767.866ZM565.498 767.866H469.981V684.793H565.498V767.866ZM665.518 767.866H570.001V684.793H665.518V767.866ZM765.539 767.866H670.022V684.793H765.539V767.866ZM865.56 767.866H770.042V684.793H865.56V767.866ZM965.58 767.866H870.063V684.793H965.58V767.866ZM65.2972 680.876H-30.22V597.803H65.2972V680.876ZM165.318 680.876H69.8006V597.803H165.318V680.876ZM265.338 680.876H169.821V597.803H265.338V680.876ZM365.359 680.876H269.842V597.803H365.359V680.876ZM465.38 680.876H369.862V597.803H465.38V680.876ZM565.4 680.876H469.883V597.803H565.4V680.876ZM665.421 680.876H569.903V597.803H665.421V680.876ZM765.441 680.876H669.924V597.803H765.441V680.876ZM865.462 680.876H769.945V597.803H865.462V680.876ZM965.482 680.876H869.965V597.803H965.482V680.876ZM65.1993 593.887H-30.3179V510.814H65.1993V593.887ZM165.22 593.887H69.7027V510.814H165.22V593.887ZM265.24 593.887H169.723V510.814H265.24V593.887ZM365.261 593.887H269.744V510.814H365.261V593.887ZM465.282 593.887H369.764V510.814H465.282V593.887ZM565.302 593.887H469.785V510.814H565.302V593.887ZM665.323 593.887H569.806V510.814H665.323V593.887ZM765.343 593.887H669.826V510.814H765.343V593.887ZM865.364 593.887H769.847V510.814H865.364V593.887ZM965.384 593.887H869.867V510.814H965.384V593.887ZM65.1014 506.897H-30.4158V423.825H65.1014V506.897ZM165.122 506.897H69.6048V423.825H165.122V506.897ZM265.143 506.897H169.625V423.825H265.143V506.897ZM365.163 506.897H269.646V423.825H365.163V506.897ZM465.184 506.897H369.666V423.825H465.184V506.897ZM565.204 506.897H469.687V423.825H565.204V506.897ZM665.225 506.897H569.708V423.825H665.225V506.897ZM765.245 506.897H669.728V423.825H765.245V506.897ZM865.266 506.897H769.749V423.825H865.266V506.897ZM965.286 506.897H869.769V423.825H965.286V506.897ZM65.0035 419.908H-30.5137V336.835H65.0035V419.908ZM165.024 419.908H69.5069V336.835H165.024V419.908ZM265.045 419.908H169.527V336.835H265.045V419.908ZM365.065 419.908H269.548V336.835H365.065V419.908ZM465.086 419.908H369.569V336.835H465.086V419.908ZM565.106 419.908H469.589V336.835H565.106V419.908ZM665.127 419.908H569.61V336.835H665.127V419.908ZM765.148 419.908H669.63V336.835H765.148V419.908ZM865.168 419.908H769.651V336.835H865.168V419.908ZM965.189 419.908H869.671V336.835H965.189V419.908ZM64.9056 332.918H-30.6116V249.846H64.9056V332.918ZM164.926 332.918H69.409V249.846H164.926V332.918ZM264.947 332.918H169.43V249.846H264.947V332.918ZM364.967 332.918H269.45V249.846H364.967V332.918ZM464.988 332.918H369.471V249.846H464.988V332.918ZM565.008 332.918H469.491V249.846H565.008V332.918ZM665.029 332.918H569.512V249.846H665.029V332.918ZM765.05 332.918H669.532V249.846H765.05V332.918ZM865.07 332.918H769.553V249.846H865.07V332.918ZM965.091 332.918H869.574V249.846H965.091V332.918ZM64.8077 245.929H-30.7095V162.856H64.8077V245.929ZM164.828 245.929H69.3111V162.856H164.828V245.929ZM264.849 245.929H169.332V162.856H264.849V245.929ZM364.869 245.929H269.352V162.856H364.869V245.929ZM464.89 245.929H369.373V162.856H464.89V245.929ZM564.911 245.929H469.393V162.856H564.911V245.929ZM664.931 245.929H569.414V162.856H664.931V245.929ZM764.952 245.929H669.435V162.856H764.952V245.929ZM864.972 245.929H769.455V162.856H864.972V245.929ZM964.993 245.929H869.476V162.856H964.993V245.929ZM64.7098 158.94H-30.8074V75.8668H64.7098V158.94ZM164.73 158.94H69.2132V75.8668H164.73V158.94ZM264.751 158.94H169.234V75.8668H264.751V158.94ZM364.772 158.94H269.254V75.8668H364.772V158.94ZM464.792 158.94H369.275V75.8668H464.792V158.94ZM564.813 158.94H469.295V75.8668H564.813V158.94ZM664.833 158.94H569.316V75.8668H664.833V158.94ZM764.854 158.94H669.337V75.8668H764.854V158.94ZM864.874 158.94H769.357V75.8668H864.874V158.94ZM964.895 158.94H869.378V75.8668H964.895V158.94Z" fill="white"/>
</g>
<g style="mix-blend-mode:overlay" opacity="0.6">
<path d="M844.236 1174.67L1207.44 834.356" stroke="white" stroke-width="0.49" stroke-miterlimit="10"/>
<path d="M850.454 1179.94C847.188 1183 841.878 1183 838.612 1179.94C835.347 1176.88 835.347 1171.9 838.612 1168.84C841.878 1165.78 847.188 1165.78 850.454 1168.84C853.72 1171.9 853.72 1176.88 850.454 1179.94Z" fill="white"/>
<path d="M1213.06 840.184C1216.33 837.124 1216.33 832.148 1213.06 829.088C1209.8 826.028 1204.49 826.028 1201.22 829.088C1197.96 832.148 1197.96 837.124 1201.22 840.184C1204.49 843.244 1209.8 843.244 1213.06 840.184Z" fill="white"/>
</g>
<g style="mix-blend-mode:overlay" opacity="0.6">
<path d="M1693.01 475.791L1988.15 199.256" stroke="white" stroke-width="0.49" stroke-miterlimit="10"/>
<path d="M1699.23 481.06C1695.96 484.12 1690.65 484.12 1687.39 481.06C1684.12 478 1684.12 473.024 1687.39 469.964C1690.65 466.904 1695.96 466.904 1699.23 469.964C1702.49 473.024 1702.49 478 1699.23 481.06Z" fill="white"/>
</g>
<g style="mix-blend-mode:overlay" opacity="0.6">
<path d="M1605.18 1167.25L1900.31 890.712" stroke="white" stroke-width="0.49" stroke-miterlimit="10"/>
<path d="M1611.4 1172.52C1608.13 1175.58 1602.82 1175.58 1599.55 1172.52C1596.29 1169.46 1596.29 1164.48 1599.55 1161.42C1602.82 1158.36 1608.13 1158.36 1611.4 1161.42C1614.66 1164.48 1614.66 1169.46 1611.4 1172.52Z" fill="white"/>
<path d="M1905.93 896.54C1909.2 893.48 1909.2 888.504 1905.93 885.444C1902.67 882.384 1897.36 882.384 1894.09 885.444C1890.83 888.504 1890.83 893.48 1894.09 896.54C1897.36 899.6 1902.67 899.6 1905.93 896.54Z" fill="white"/>
</g>
<g style="mix-blend-mode:overlay" opacity="0.6">
<path d="M1655.15 1205.48L1950.29 928.948" stroke="white" stroke-width="0.49" stroke-miterlimit="10"/>
<path d="M1661.37 1210.75C1658.11 1213.81 1652.8 1213.81 1649.53 1210.75C1646.26 1207.69 1646.26 1202.72 1649.53 1199.66C1652.8 1196.6 1658.11 1196.6 1661.37 1199.66C1664.64 1202.72 1664.64 1207.69 1661.37 1210.75Z" fill="white"/>
<path d="M1955.91 934.775C1959.18 931.715 1959.18 926.74 1955.91 923.68C1952.64 920.62 1947.33 920.62 1944.07 923.68C1940.8 926.74 1940.8 931.715 1944.07 934.775C1947.33 937.835 1952.64 937.835 1955.91 934.775Z" fill="white"/>
</g>
<g style="mix-blend-mode:overlay" opacity="0.6">
<path d="M1190.15 451.337L1643.91 26.1714" stroke="white" stroke-width="0.49" stroke-miterlimit="10"/>
<path d="M1196.37 456.606C1193.1 459.666 1187.79 459.666 1184.52 456.606C1181.26 453.546 1181.26 448.57 1184.52 445.51C1187.79 442.45 1193.1 442.45 1196.37 445.51C1199.63 448.57 1199.63 453.546 1196.37 456.606Z" fill="white"/>
<path d="M1649.53 31.9992C1652.8 28.9394 1652.8 23.9637 1649.53 20.9038C1646.27 17.8439 1640.96 17.8439 1637.69 20.9038C1634.43 23.9637 1634.43 28.9394 1637.69 31.9992C1640.96 35.0591 1646.27 35.0591 1649.53 31.9992Z" fill="white"/>
</g>
<g style="mix-blend-mode:overlay" opacity="0.6">
<path d="M1394.13 313.749L1847.89 -111.443" stroke="white" stroke-width="0.49" stroke-miterlimit="10"/>
<path d="M1400.34 319.018C1397.08 322.078 1391.77 322.078 1388.5 319.018C1385.24 315.958 1385.24 310.982 1388.5 307.922C1391.77 304.862 1397.08 304.862 1400.34 307.922C1403.61 310.982 1403.61 315.958 1400.34 319.018Z" fill="white"/>
</g>
<g style="mix-blend-mode:overlay" opacity="0.6">
<path d="M-42.1943 667.18L411.598 242.014" stroke="white" stroke-width="0.49" stroke-miterlimit="10"/>
<path d="M417.222 247.842C420.487 244.782 420.487 239.806 417.222 236.747C413.956 233.687 408.646 233.687 405.38 236.747C402.114 239.806 402.114 244.782 405.38 247.842C408.646 250.902 413.956 250.902 417.222 247.842Z" fill="white"/>
</g>
<g style="mix-blend-mode:overlay" opacity="0.6">
<path d="M161.787 529.592L615.58 104.426" stroke="white" stroke-width="0.49" stroke-miterlimit="10"/>
<path d="M168.006 534.86C164.74 537.919 159.43 537.919 156.164 534.86C152.898 531.8 152.898 526.824 156.164 523.764C159.43 520.704 164.74 520.704 168.006 523.764C171.272 526.824 171.272 531.8 168.006 534.86Z" fill="white"/>
<path d="M621.203 110.226C624.469 107.166 624.469 102.191 621.203 99.1309C617.937 96.071 612.627 96.071 609.361 99.1309C606.096 102.191 606.096 107.166 609.361 110.226C612.627 113.286 617.937 113.286 621.203 110.226Z" fill="white"/>
</g>
<g style="mix-blend-mode:overlay" opacity="0.6">
<path d="M906.624 1209.42L1169.93 962.712" stroke="white" stroke-width="0.49" stroke-miterlimit="10"/>
<path d="M912.844 1214.69C909.578 1217.75 904.268 1217.75 901.002 1214.69C897.736 1211.63 897.736 1206.65 901.002 1203.59C904.268 1200.53 909.578 1200.53 912.844 1203.59C916.109 1206.65 916.109 1211.63 912.844 1214.69Z" fill="white"/>
<path d="M1175.55 968.54C1178.82 965.48 1178.82 960.505 1175.55 957.445C1172.28 954.385 1166.97 954.385 1163.71 957.445C1160.44 960.505 1160.44 965.48 1163.71 968.54C1166.97 971.6 1172.28 971.6 1175.55 968.54Z" fill="white"/>
</g>
<g style="mix-blend-mode:overlay" opacity="0.6">
<path d="M89.3145 1174.67L452.491 834.356" stroke="white" stroke-width="0.49" stroke-miterlimit="10"/>
<path d="M95.5059 1179.94C92.2402 1183 86.9298 1183 83.6641 1179.94C80.3984 1176.88 80.3984 1171.9 83.6641 1168.84C86.9298 1165.78 92.2402 1165.78 95.5059 1168.84C98.7716 1171.9 98.7716 1176.88 95.5059 1179.94Z" fill="white"/>
<path d="M458.112 840.184C461.378 837.124 461.378 832.148 458.112 829.088C454.847 826.028 449.536 826.028 446.271 829.088C443.005 832.148 443.005 837.124 446.271 840.184C449.536 843.244 454.847 843.244 458.112 840.184Z" fill="white"/>
</g>
<g style="mix-blend-mode:overlay" opacity="0.6">
<path d="M151.705 1209.42L414.979 962.712" stroke="white" stroke-width="0.49" stroke-miterlimit="10"/>
<path d="M157.924 1214.69C154.658 1217.75 149.348 1217.75 146.082 1214.69C142.816 1211.63 142.816 1206.65 146.082 1203.59C149.348 1200.53 154.658 1200.53 157.924 1203.59C161.19 1206.65 161.19 1211.63 157.924 1214.69Z" fill="white"/>
<path d="M420.602 968.54C423.867 965.48 423.867 960.505 420.602 957.445C417.336 954.385 412.026 954.385 408.76 957.445C405.494 960.505 405.494 965.48 408.76 968.54C412.026 971.6 417.336 971.6 420.602 968.54Z" fill="white"/>
</g>
<g style="mix-blend-mode:overlay" opacity="0.6">
<path d="M1644.42 957.444C1644.42 969.651 1633.93 979.519 1621.03 979.519C1608.12 979.519 1597.63 969.619 1597.63 957.444C1597.63 945.27 1608.12 935.37 1621.03 935.37C1633.93 935.37 1644.42 945.27 1644.42 957.444Z" fill="white"/>
</g>
<g style="mix-blend-mode:overlay" opacity="0.6">
<path d="M1620.99 1000.89C1646.42 1000.89 1667.03 981.439 1667.03 957.445C1667.03 933.451 1646.42 914 1620.99 914C1595.57 914 1574.95 933.451 1574.95 957.445C1574.95 981.439 1595.57 1000.89 1620.99 1000.89Z" stroke="white" stroke-width="0.49" stroke-miterlimit="10"/>
</g>
<g style="mix-blend-mode:overlay" opacity="0.6">
<path d="M1056.25 423.853C1066.28 423.853 1074.42 415.645 1074.42 405.52C1074.42 395.395 1066.28 387.187 1056.25 387.187C1046.22 387.187 1038.09 395.395 1038.09 405.52C1038.09 415.645 1046.22 423.853 1056.25 423.853Z" fill="white"/>
</g>
<g style="mix-blend-mode:overlay" opacity="0.6">
<path d="M1056.25 441.6C1076 441.6 1092 425.447 1092 405.52C1092 385.594 1076 369.44 1056.25 369.44C1036.51 369.44 1020.5 385.594 1020.5 405.52C1020.5 425.447 1036.51 441.6 1056.25 441.6Z" stroke="white" stroke-width="0.49" stroke-miterlimit="10"/>
</g>
<g style="mix-blend-mode:overlay" opacity="0.6">
<path d="M369.631 967.921C382.214 967.921 392.415 957.977 392.415 945.711C392.415 933.444 382.214 923.5 369.631 923.5C357.048 923.5 346.848 933.444 346.848 945.711C346.848 957.977 357.048 967.921 369.631 967.921Z" fill="white"/>
</g>
<g style="mix-blend-mode:overlay" opacity="0.6">
<path d="M369.63 989.422C394.394 989.422 414.47 969.852 414.47 945.711C414.47 921.57 394.394 902 369.63 902C344.865 902 324.79 921.57 324.79 945.711C324.79 969.852 344.865 989.422 369.63 989.422Z" stroke="white" stroke-width="0.49" stroke-miterlimit="10"/>
</g>
<g style="mix-blend-mode:overlay" opacity="0.6">
<path d="M436.219 412.689C449.574 412.689 460.4 402.177 460.4 389.209C460.4 376.242 449.574 365.729 436.219 365.729C422.865 365.729 412.039 376.242 412.039 389.209C412.039 402.177 422.865 412.689 436.219 412.689Z" fill="white"/>
</g>
<g style="mix-blend-mode:overlay" opacity="0.6">
<path d="M436.219 435.419C462.501 435.419 483.807 414.73 483.807 389.21C483.807 363.689 462.501 343 436.219 343C409.936 343 388.63 363.689 388.63 389.21C388.63 414.73 409.936 435.419 436.219 435.419Z" stroke="white" stroke-width="0.49" stroke-miterlimit="10"/>
</g>
<g style="mix-blend-mode:overlay" opacity="0.6">
<path d="M1675.07 215.825C1662.18 222.772 1646.12 217.934 1639.17 205.068C1632.23 192.203 1637.07 176.121 1649.93 169.175C1662.82 162.228 1678.88 167.066 1685.83 179.932C1692.77 192.824 1687.93 208.879 1675.07 215.825Z" fill="white"/>
</g>
<g style="mix-blend-mode:overlay" opacity="0.6">
<path d="M1702.65 198.708C1706.16 177.197 1691.02 157 1668.84 153.597C1646.67 150.194 1625.84 164.873 1622.33 186.384C1618.83 207.894 1633.96 228.091 1656.14 231.494C1678.32 234.897 1699.14 220.218 1702.65 198.708Z" stroke="white" stroke-width="0.49" stroke-miterlimit="10"/>
</g>
</g>
<defs>
<linearGradient id="paint0_linear_354_4287" x1="994.261" y1="-1.81348" x2="994.261" y2="384.652" gradientUnits="userSpaceOnUse">
<stop offset="0.04" stop-color="white" stop-opacity="0"/>
<stop offset="0.16" stop-color="white" stop-opacity="0.02"/>
<stop offset="0.28" stop-color="white" stop-opacity="0.06"/>
<stop offset="0.4" stop-color="white" stop-opacity="0.14"/>
<stop offset="0.52" stop-color="white" stop-opacity="0.24"/>
<stop offset="0.63" stop-color="white" stop-opacity="0.38"/>
<stop offset="0.75" stop-color="white" stop-opacity="0.55"/>
<stop offset="0.86" stop-color="white" stop-opacity="0.75"/>
<stop offset="0.98" stop-color="white" stop-opacity="0.98"/>
<stop offset="0.99" stop-color="white"/>
</linearGradient>
<linearGradient id="paint1_linear_354_4287" x1="967.739" y1="1303" x2="967.739" y2="916.534" gradientUnits="userSpaceOnUse">
<stop offset="0.04" stop-color="white" stop-opacity="0"/>
<stop offset="0.16" stop-color="white" stop-opacity="0.02"/>
<stop offset="0.28" stop-color="white" stop-opacity="0.06"/>
<stop offset="0.4" stop-color="white" stop-opacity="0.14"/>
<stop offset="0.52" stop-color="white" stop-opacity="0.24"/>
<stop offset="0.63" stop-color="white" stop-opacity="0.38"/>
<stop offset="0.75" stop-color="white" stop-opacity="0.55"/>
<stop offset="0.86" stop-color="white" stop-opacity="0.75"/>
<stop offset="0.98" stop-color="white" stop-opacity="0.98"/>
<stop offset="0.99" stop-color="white"/>
</linearGradient>
<linearGradient id="paint2_linear_354_4287" x1="1025.24" y1="109.738" x2="1025.24" y2="337.342" gradientUnits="userSpaceOnUse">
<stop stop-color="white" stop-opacity="0"/>
<stop offset="0.13" stop-color="white" stop-opacity="0.02"/>
<stop offset="0.25" stop-color="white" stop-opacity="0.06"/>
<stop offset="0.38" stop-color="white" stop-opacity="0.14"/>
<stop offset="0.5" stop-color="white" stop-opacity="0.24"/>
<stop offset="0.62" stop-color="white" stop-opacity="0.38"/>
<stop offset="0.74" stop-color="white" stop-opacity="0.55"/>
<stop offset="0.86" stop-color="white" stop-opacity="0.75"/>
<stop offset="0.98" stop-color="white" stop-opacity="0.98"/>
<stop offset="0.99" stop-color="white"/>
</linearGradient>
<linearGradient id="paint3_linear_354_4287" x1="936.756" y1="1191.45" x2="936.756" y2="963.844" gradientUnits="userSpaceOnUse">
<stop stop-color="white" stop-opacity="0"/>
<stop offset="0.13" stop-color="white" stop-opacity="0.02"/>
<stop offset="0.25" stop-color="white" stop-opacity="0.06"/>
<stop offset="0.38" stop-color="white" stop-opacity="0.14"/>
<stop offset="0.5" stop-color="white" stop-opacity="0.24"/>
<stop offset="0.62" stop-color="white" stop-opacity="0.38"/>
<stop offset="0.74" stop-color="white" stop-opacity="0.55"/>
<stop offset="0.86" stop-color="white" stop-opacity="0.75"/>
<stop offset="0.98" stop-color="white" stop-opacity="0.98"/>
<stop offset="0.99" stop-color="white"/>
</linearGradient>
</defs>
</svg>
